HIERARCHY
ROOT Hips
{
 OFFSET 0.000000 0.000000 0.000000
 CHANNELS 6 Xposition Yposition Zposition Yrotation Xrotation Zrotation
 JOINT Chest
 {
  OFFSET 0.000000 10.354800 0.006500
  CHANNELS 3 Yrotation Xrotation Zrotation
  JOINT Chest2
  {
   OFFSET 0.000000 10.435800 -0.013200
   CHANNELS 3 Yrotation Xrotation Zrotation
   JOINT Chest3
   {
    OFFSET 0.000000 10.393700 0.000000
    CHANNELS 3 Yrotation Xrotation Zrotation
    JOINT Chest4
    {
     OFFSET 0.000000 10.383100 0.000000
     CHANNELS 3 Yrotation Xrotation Zrotation
     JOINT Neck
     {
      OFFSET 0.000000 15.694000 0.000000
      CHANNELS 3 Yrotation Xrotation Zrotation
      JOINT Head
      {
       OFFSET 0.000000 9.711000 -0.028000
       CHANNELS 3 Yrotation Xrotation Zrotation
       End Site
       {
        OFFSET 0.000000 18.578700 -0.014800
       }
      }
     }
     JOINT RightCollar
     {
      OFFSET -3.157200 10.367500 0.000000
      CHANNELS 3 Yrotation Xrotation Zrotation
      JOINT RightShoulder
      {
       OFFSET -14.482500 0.000000 0.000000
       CHANNELS 3 Yrotation Xrotation Zrotation
       JOINT RightElbow
       {
        OFFSET 0.000000 -31.707800 0.000000
        CHANNELS 3 Yrotation Xrotation Zrotation
        JOINT RightWrist
        {
         OFFSET 0.000000 -25.659300 0.000000
         CHANNELS 3 Yrotation Xrotation Zrotation
         End Site
         {
          OFFSET 0.000000 -18.994300 0.000000
         }
        }
       }
      }
     }
     JOINT LeftCollar
     {
      OFFSET 3.157200 10.367500 0.000000
      CHANNELS 3 Yrotation Xrotation Zrotation
      JOINT LeftShoulder
      {
       OFFSET 14.482500 0.000000 0.000000
       CHANNELS 3 Yrotation Xrotation Zrotation
       JOINT LeftElbow
       {
        OFFSET 0.000000 -31.707800 0.000000
        CHANNELS 3 Yrotation Xrotation Zrotation
        JOINT LeftWrist
        {
         OFFSET 0.000000 -25.659300 0.000000
         CHANNELS 3 Yrotation Xrotation Zrotation
         End Site
         {
          OFFSET 0.000000 -18.994300 0.000000
         }
        }
       }
      }
     }
    }
   }
  }
 }
 JOINT RightHip
 {
  OFFSET -8.365600 -0.032100 -0.003200
  CHANNELS 3 Yrotation Xrotation Zrotation
  JOINT RightKnee
  {
   OFFSET 0.000000 -43.980000 0.003100
   CHANNELS 3 Yrotation Xrotation Zrotation
   JOINT RightAnkle
   {
    OFFSET 0.000000 -42.882800 0.005200
    CHANNELS 3 Yrotation Xrotation Zrotation
    JOINT RightToe
    {
     OFFSET 0.000000 -4.915500 10.826300
     CHANNELS 3 Yrotation Xrotation Zrotation
     End Site
     {
      OFFSET 0.000000 -1.517500 6.175900
     }
    }
   }
  }
 }
 JOINT LeftHip
 {
  OFFSET 8.365600 -0.032100 -0.003200
  CHANNELS 3 Yrotation Xrotation Zrotation
  JOINT LeftKnee
  {
   OFFSET 0.000000 -43.980000 0.003100
   CHANNELS 3 Yrotation Xrotation Zrotation
   JOINT LeftAnkle
   {
    OFFSET 0.000000 -42.882800 0.005200
    CHANNELS 3 Yrotation Xrotation Zrotation
    JOINT LeftToe
    {
     OFFSET 0.000000 -4.915500 10.826300
     CHANNELS 3 Yrotation Xrotation Zrotation
     End Site
     {
      OFFSET 0.000000 -1.517500 6.175900
     }
    }
   }
  }
 }
}
MOTION
Frames: 16
Frame Time: 0.008333
-0.518243 126.810724 40.664813 171.543777 -25.607492 -2.584070 -0.198782 15.204031 3.445696 -0.049511 1.453928 0.329498 -0.082568 2.438709 0.551626 -0.220726 13.536571 3.059302 -2.254470 21.512226 -1.367857 -2.095316 -2.773294 -0.942691 1.828119 7.812023 -6.092376 3.001341 -1.351000 -6.637539 -94.739997 -70.449762 126.668212 -17.136987 -21.691091 -37.585146 2.257704 9.500624 1.275814 4.303313 2.138053 0.551754 117.177750 -74.714599 -157.280836 19.750251 -5.471164 33.298930 7.773850 -56.903091 -1.662279 -94.635856 78.060468 -87.873491 3.754532 6.769276 -17.389671 0.007195 -0.003365 0.003266 -17.516332 -56.586822 1.333217 120.152713 85.249016 113.395579 -5.222462 -25.035684 -0.257629 -0.005460 0.004868 -0.002479
-0.519557 126.811664 40.665588 171.538336 -25.613915 -2.583860 -0.202463 15.202483 3.443529 -0.050863 1.452932 0.329067 -0.093328 2.426641 0.549530 -0.243068 13.505765 3.060953 -2.250755 21.498974 -1.347194 -2.102648 -2.793296 -0.928637 1.853617 7.839872 -6.093510 3.067994 -1.419090 -6.718070 -94.522236 -70.364016 126.520246 -17.183218 -21.686091 -37.554338 2.276705 9.529838 1.271052 4.341392 2.126484 0.575626 116.642830 -74.633984 -156.803409 19.865194 -5.394314 33.452647 7.775325 -56.902591 -1.656892 -94.650535 78.056123 -87.889510 3.725771 6.770136 -17.381746 0.003415 -0.001513 0.001551 -17.402551 -56.583052 1.260596 120.123864 85.222065 113.405819 -5.221279 -25.089924 -0.237129 -0.004642 0.004527 -0.002108
-0.520684 126.812403 40.666007 171.532215 -25.616534 -2.584115 -0.204275 15.197160 3.442897 -0.058855 1.443590 0.327801 -0.094053 2.424822 0.549616 -0.239356 13.503170 3.064471 -2.264175 21.468369 -1.328191 -2.121086 -2.828771 -0.905051 1.844988 7.812648 -6.086714 3.113241 -1.415582 -6.764843 -94.426526 -70.306138 126.515666 -17.171186 -21.688992 -37.622483 2.267988 9.527170 1.269110 4.416446 2.100130 0.613702 115.982251 -74.537911 -156.234682 19.970650 -5.354197 33.600873 7.778626 -56.906313 -1.652847 -94.651842 78.051745 -87.887602 3.686889 6.772848 -17.381336 0.000556 -0.002668 0.000253 -17.302771 -56.583776 1.199752 120.086498 85.193841 113.401259 -5.215970 -25.140441 -0.218086 -0.004402 0.003187 -0.001999
-0.521787 126.813231 40.665408 171.530396 -25.618936 -2.585908 -0.210542 15.189190 3.441470 -0.065387 1.434380 0.326702 -0.088142 2.430635 0.550831 -0.237829 13.500816 3.067826 -2.279418 21.432934 -1.308353 -2.141415 -2.865883 -0.883151 1.831485 7.783362 -6.083972 3.153198 -1.412699 -6.805387 -94.316270 -70.243817 126.486891 -17.138557 -21.694278 -37.699335 2.244006 9.501812 1.271274 4.509652 2.091534 0.651192 115.315141 -74.435135 -155.664922 20.062549 -5.348939 33.743985 7.777567 -56.907539 -1.647009 -94.663168 78.050277 -87.897739 3.625838 6.771690 -17.373852 -0.004914 0.000111 -0.002231 -17.218548 -56.584187 1.146059 120.062501 85.173432 113.406503 -5.193964 -25.186987 -0.204668 -0.002747 0.001877 -0.001247
-0.522003 126.814059 40.664210 171.521857 -25.619874 -2.589862 -0.211789 15.178784 3.443863 -0.064256 1.436121 0.328364 -0.089037 2.424608 0.550151 -0.230130 13.511115 3.069754 -2.290945 21.400793 -1.291493 -2.156968 -2.895328 -0.868284 1.822227 7.741724 -6.082229 3.186115 -1.437125 -6.866953 -94.102797 -70.153692 126.336968 -17.240728 -21.635620 -37.647903 2.227274 9.469597 1.276610 4.554678 2.108548 0.663722 114.861424 -74.341670 -155.268412 20.146806 -5.367062 33.875739 7.773719 -56.910201 -1.632834 -94.674024 78.050683 -87.908943 3.616920 6.769833 -17.373470 -0.006128 0.000889 -0.002782 -17.181631 -56.583599 1.132645 120.100072 85.166770 113.459626 -5.160037 -25.223218 -0.203024 -0.001648 0.002773 -0.000748
-0.523194 126.814675 40.662252 171.513718 -25.618154 -2.588909 -0.209887 15.173216 3.444506 -0.062532 1.437385 0.328370 -0.093641 2.414732 0.552663 -0.225751 13.510141 3.076454 -2.296437 21.401870 -1.296719 -2.162240 -2.905610 -0.863627 1.815294 7.711563 -6.089282 3.211212 -1.483569 -6.939335 -93.823730 -70.047327 126.110004 -17.315096 -21.547679 -37.587371 2.218348 9.449729 1.271005 4.628822 2.087561 0.707435 114.302738 -74.239141 -154.788428 20.224556 -5.393759 34.000610 7.774825 -56.915809 -1.626732 -94.692789 78.048447 -87.933592 3.639648 6.767052 -17.372399 -0.006727 0.000516 -0.003054 -17.142103 -56.587097 1.122121 120.106054 85.142749 113.469211 -5.182346 -25.243683 -0.185292 -0.007471 0.005834 -0.003392
-0.520720 126.813872 40.663387 171.502976 -25.595389 -2.610463 -0.199992 15.151264 3.467472 -0.058103 1.435944 0.330550 -0.093447 2.412405 0.552988 -0.226210 13.497904 3.085472 -2.309332 21.367682 -1.283405 -2.194224 -3.008671 -0.815263 1.810126 7.690440 -6.098760 3.223917 -1.504254 -6.983363 -93.646676 -69.982445 125.956078 -17.417885 -21.454177 -37.485486 2.213017 9.432564 1.265159 4.691879 2.068285 0.750214 113.843199 -74.139699 -154.392322 20.290324 -5.416637 34.126610 7.731216 -56.940207 -1.569105 -94.663795 78.042441 -87.918050 3.723151 6.764797 -17.380550 -0.002679 0.000560 -0.001217 -17.116592 -56.601949 1.145957 120.130522 85.121777 113.509692 -5.164952 -25.293921 -0.165661 -0.007952 0.007391 -0.003611
-0.518729 126.813704 40.662056 171.497235 -25.580845 -2.630608 -0.189628 15.137085 3.490074 -0.058197 1.435509 0.330110 -0.093046 2.411594 0.553977 -0.214220 13.478405 3.099629 -2.330776 21.340731 -1.273828 -2.210825 -3.069271 -0.790474 1.793894 7.681923 -6.110054 3.233409 -1.524037 -7.022383 -93.501636 -69.921122 125.828258 -17.545995 -21.359173 -37.369793 2.196945 9.414035 1.263742 4.713988 2.088822 0.761490 113.623308 -74.053757 -154.193079 20.343430 -5.424941 34.251163 7.698875 -56.955207 -1.525782 -94.638990 78.031848 -87.902276 3.844564 6.765306 -17.393105 0.004607 -0.003290 0.002092 -17.086287 -56.607641 1.162178 120.193207 85.105320 113.579191 -5.113101 -25.366991 -0.142031 -0.005101 0.004149 -0.002316
-0.519648 126.814342 40.657275 171.491376 -25.578381 -2.633123 -0.182151 15.137400 3.492716 -0.056461 1.441220 0.326804 -0.092368 2.401035 0.558783 -0.214037 13.477568 3.102722 -2.330379 21.256229 -1.237451 -2.220692 -3.068008 -0.792301 1.787974 7.659702 -6.113259 3.239290 -1.530405 -7.051629 -93.257732 -69.765867 125.656638 -17.568016 -21.289444 -37.308733 2.194397 9.411754 1.264790 4.733570 2.075212 0.776298 113.477636 -74.009119 -154.062621 20.407699 -5.441540 34.367820 7.694215 -56.956518 -1.510213 -94.628818 78.025927 -87.893938 3.863237 6.762602 -17.397859 0.007128 -0.005080 0.003236 -17.019427 -56.605076 1.145692 120.198471 85.070153 113.579575 -5.121734 -25.415516 -0.103157 -0.009057 0.003844 -0.004112
-0.519412 126.813378 40.655256 171.488786 -25.554640 -2.646911 -0.175352 15.123295 3.503875 -0.057348 1.437289 0.329232 -0.089359 2.398824 0.557535 -0.206202 13.467217 3.110141 -2.336946 21.231196 -1.224685 -2.225703 -3.122936 -0.772224 1.779058 7.635117 -6.114202 3.239641 -1.525713 -7.085878 -93.075262 -69.650908 125.514787 -17.657193 -21.267759 -37.232553 2.189601 9.406605 1.271310 4.775938 2.061828 0.801804 113.284187 -73.954416 -153.906648 20.455014 -5.438527 34.483079 7.680023 -56.980248 -1.484323 -94.621168 78.015019 -87.884364 3.849066 6.759382 -17.395765 0.005201 -0.003524 0.002361 -16.881370 -56.625717 1.080766 120.249025 85.062552 113.694331 -5.110155 -25.454601 -0.084679 -0.002532 0.003554 -0.001150
-0.517094 126.810979 40.656007 171.471968 -25.511454 -2.669577 -0.155218 15.089316 3.531560 -0.055844 1.429615 0.331754 -0.088976 2.402114 0.556578 -0.191046 13.458106 3.121212 -2.345982 21.193403 -1.215676 -2.228322 -3.168685 -0.757832 1.764677 7.631187 -6.119623 3.232319 -1.540181 -7.123156 -92.899021 -69.526683 125.375114 -17.739542 -21.278915 -37.180651 2.174964 9.389028 1.269402 4.824573 2.060836 0.823645 113.099524 -73.877375 -153.746195 20.470904 -5.398262 34.587942 7.663627 -57.024453 -1.440665 -94.601390 78.009932 -87.866619 3.903033 6.755408 -17.400703 0.007503 -0.002178 0.003406 -16.835875 -56.662331 1.096128 120.236619 85.032674 113.710321 -5.073662 -25.505380 -0.081021 -0.002780 0.004445 -0.001262
-0.518140 126.809761 40.652457 171.464415 -25.485139 -2.675587 -0.151836 15.087368 3.525836 -0.051083 1.417110 0.339156 -0.087244 2.399100 0.557765 -0.183798 13.448422 3.128558 -2.340619 21.145237 -1.199987 -2.228978 -3.203047 -0.748804 1.761600 7.626210 -6.119931 3.220233 -1.552169 -7.156067 -92.702939 -69.377001 125.222650 -17.784752 -21.303343 -37.175193 2.174563 9.380107 1.269732 4.954272 2.051309 0.864754 112.894284 -73.797082 -153.630140 20.499828 -5.354291 34.669458 7.666496 -57.048605 -1.423953 -94.581828 78.006190 -87.843000 3.797324 6.745537 -17.392215 -0.000974 0.002300 -0.000442 -16.768930 -56.688092 1.072735 120.223936 84.998606 113.720044 -5.055102 -25.552213 -0.078731 -0.002546 0.003996 -0.001156
-0.518910 126.808117 40.649079 171.459143 -25.452754 -2.685419 -0.146140 15.074384 3.529980 -0.053399 1.428232 0.331403 -0.084822 2.386786 0.561417 -0.170706 13.434320 3.140856 -2.336120 21.107490 -1.188639 -2.232515 -3.209988 -0.745151 1.760421 7.624904 -6.116280 3.209633 -1.562917 -7.172594 -92.550965 -69.259518 125.096737 -17.839927 -21.338056 -37.198666 2.174165 9.371940 1.273734 5.025316 2.055584 0.879444 112.828486 -73.732142 -153.592037 20.504737 -5.301638 34.690210 7.658325 -57.079351 -1.400571 -94.555713 78.004185 -87.815312 3.709034 6.740846 -17.383609 -0.006858 0.005828 -0.003114 -16.722407 -56.720066 1.065867 120.299122 84.986053 113.821076 -5.028288 -25.601646 -0.087186 0.001233 0.003527 0.000560
-0.519595 126.807556 40.642591 171.449841 -25.434244 -2.692427 -0.134248 15.084316 3.530949 -0.051924 1.421314 0.333496 -0.085104 2.368460 0.568635 -0.160745 13.440747 3.139873 -2.332348 21.070552 -1.178163 -2.227397 -3.272468 -0.730044 1.757938 7.623452 -6.105887 3.198542 -1.579599 -7.192640 -92.457732 -69.193192 125.016900 -17.943075 -21.385262 -37.242480 2.168846 9.361217 1.279385 5.105299 2.066330 0.891487 112.810897 -73.623460 -153.537890 20.534507 -5.224156 34.723546 7.651496 -57.097275 -1.382534 -94.544062 78.005476 -87.806320 3.746152 6.737188 -17.397773 -0.002159 0.001177 -0.000980 -16.703347 -56.736530 1.079139 120.339400 84.945040 113.856126 -5.031621 -25.665159 -0.083024 -0.002339 0.002961 -0.001062
-0.519111 126.806773 40.636086 171.440140 -25.411802 -2.706426 -0.119144 15.087708 3.540433 -0.050952 1.419291 0.333737 -0.083663 2.363791 0.570020 -0.151807 13.433208 3.144669 -2.333157 21.046480 -1.169716 -2.220178 -3.338842 -0.719517 1.765091 7.638474 -6.087449 3.144258 -1.638557 -7.248781 -92.264391 -69.095697 124.866103 -18.036636 -21.427456 -37.300902 2.167260 9.360786 1.287534 5.142068 2.061942 0.894583 112.739885 -73.564986 -153.449330 20.578298 -5.235100 34.794662 7.633408 -57.120391 -1.354811 -94.538531 78.008803 -87.806701 3.862343 6.733304 -17.427626 0.009451 -0.007186 0.004290 -16.696818 -56.756180 1.104908 120.442861 84.918229 113.957881 -5.014506 -25.732433 -0.083331 -0.004200 0.002497 -0.001907
-0.519401 126.804346 40.632127 171.437728 -25.367387 -2.721997 -0.112933 15.063149 3.550298 -0.049299 1.424871 0.331001 -0.079531 2.382070 0.561012 -0.147828 13.395465 3.163144 -2.331917 21.029447 -1.165970 -2.216872 -3.377967 -0.715296 1.768559 7.645238 -6.077454 3.120540 -1.662856 -7.268571 -92.024997 -68.916985 124.638899 -18.006237 -21.425547 -37.358508 2.173045 9.371535 1.296168 5.174856 2.054928 0.893698 112.657142 -73.514909 -153.365017 20.632709 -5.268253 34.866013 7.620637 -57.169262 -1.332332 -94.541331 78.010353 -87.821977 3.883994 6.734058 -17.422071 0.009638 -0.009530 0.004375 -16.662373 -56.800224 1.104626 120.571399 84.916853 114.119037 -4.979434 -25.794615 -0.095495 0.001368 0.002403 0.000621
